<?xml version="1.0" encoding="UTF-8"?>
<svg version="1.1" xmlns="http://www.w3.org/2000/svg" width="500" height="500">
<path d="M0 0 C165 0 330 0 500 0 C500 165 500 330 500 500 C335 500 170 500 0 500 C0 335 0 170 0 0 Z " fill="#D1D1D1" transform="translate(0,0)"/>
<path d="M0 0 C11.24527576 7.90163607 20.1963392 18.99807574 23.0625 32.75 C23.36000958 36.69163736 23.38723371 40.61101159 23.375 44.5625 C23.39111328 45.59181641 23.40722656 46.62113281 23.42382812 47.68164062 C23.43291009 62.04022622 18.2861378 73.02576538 8.49609375 83.39453125 C-1.51558667 93.08480941 -13.66128275 98.17491063 -27.5625 98.3125 C-41.49989769 98.04843292 -53.58718008 92.95962885 -63.75 83.375 C-73.65516253 72.71154752 -77.21712218 60.9883901 -78.9375 46.75 C-79.39898437 47.20890625 -79.86046875 47.6678125 -80.3359375 48.140625 C-80.98820313 48.75421875 -81.64046875 49.3678125 -82.3125 50 C-82.93898437 50.60328125 -83.56546875 51.2065625 -84.2109375 51.828125 C-92.25678772 57.49941197 -99.92989557 58.30189552 -109.5625 58 C-113.31625 57.9175 -117.07 57.835 -120.9375 57.75 C-120.9375 70.29 -120.9375 82.83 -120.9375 95.75 C-128.5275 95.75 -136.1175 95.75 -143.9375 95.75 C-144.2675 80.24 -144.5975 64.73 -144.9375 48.75 C-148.2375 55.35 -151.5375 61.95 -154.9375 68.75 C-160.08739145 78.57545079 -160.08739145 78.57545079 -162.16015625 82.48046875 C-166.10995338 89.95057898 -169.97773616 97.46369007 -173.85253906 104.97290039 C-177.8015411 112.61026121 -181.84493627 120.18889751 -185.9375 127.75 C-194.1875 127.75 -202.4375 127.75 -210.9375 127.75 C-209.44335102 123.26755307 -207.97460068 119.63248576 -205.8203125 115.50390625 C-205.21316406 114.33666016 -204.60601562 113.16941406 -203.98046875 111.96679688 C-203.66513184 111.36601318 -203.34979492 110.76522949 -203.02490234 110.14624023 C-202.06807387 108.32312034 -201.11746125 106.49687132 -200.16796875 104.66992188 C-195.09877482 94.95485994 -195.09877482 94.95485994 -192.4296875 90.71484375 C-190.66725393 87.21304512 -190.86853021 86.41575804 -191.9375 82.75 C-192.85691595 80.83139905 -193.85084662 78.94768574 -194.89453125 77.09375 C-195.5073999 75.99796631 -196.12026855 74.90218262 -196.75170898 73.77319336 C-197.41769726 72.59873391 -198.08379653 71.42433739 -198.75 70.25 C-199.42643549 69.04532474 -200.10229308 67.84032482 -200.77758789 66.63500977 C-204.01874074 60.8610872 -207.29867338 55.10993155 -210.6015625 49.37109375 C-211.15610107 48.406875 -211.71063965 47.44265625 -212.28198242 46.44921875 C-213.32682062 44.63784561 -214.3763098 42.8291456 -215.4309082 41.0234375 C-215.89585693 40.22035156 -216.36080566 39.41726562 -216.83984375 38.58984375 C-217.24710693 37.89238037 -217.65437012 37.19491699 -218.07397461 36.47631836 C-218.9375 34.75 -218.9375 34.75 -218.9375 32.75 C-210.6875 32.75 -202.4375 32.75 -193.9375 32.75 C-191.81737721 36.68153937 -189.69872084 40.61379769 -187.58374023 44.5480957 C-186.86388947 45.88611973 -186.14319233 47.22368876 -185.42163086 48.56079102 C-184.38432256 50.48334522 -183.3500741 52.40751784 -182.31640625 54.33203125 C-181.6932251 55.48936768 -181.07004395 56.6467041 -180.42797852 57.83911133 C-178.9375 60.75 -178.9375 60.75 -177.9375 63.75 C-177.2775 63.75 -176.6175 63.75 -175.9375 63.75 C-175.66043213 62.87964111 -175.38336426 62.00928223 -175.09790039 61.11254883 C-174.00851601 57.95578656 -172.76297354 54.98276404 -171.37109375 51.94921875 C-170.88576172 50.89025391 -170.40042969 49.83128906 -169.90039062 48.74023438 C-169.39701172 47.65033203 -168.89363281 46.56042969 -168.375 45.4375 C-167.86775391 44.32826172 -167.36050781 43.21902344 -166.83789062 42.07617188 C-163.0694533 33.8819533 -163.0694533 33.8819533 -161.9375 32.75 C-155.9975 32.75 -150.0575 32.75 -143.9375 32.75 C-143.9375 20.21 -143.9375 7.67 -143.9375 -5.25 C-137.74776911 -5.34238404 -131.56047933 -5.42185437 -125.37060547 -5.46972656 C-123.26993657 -5.48970531 -121.1693223 -5.51689789 -119.06884766 -5.55175781 C-91.60472358 -5.99578074 -91.60472358 -5.99578074 -80.62109375 3.046875 C-76.20495372 7.51424636 -73.59675574 12.71634276 -71.9375 18.75 C-71.525 18.193125 -71.1125 17.63625 -70.6875 17.0625 C-53.52837492 -5.61205814 -26.13840494 -15.75514891 0 0 Z " fill="#102F46" transform="translate(298.9375,188.25)"/>
<path d="M0 0 C-1.60630825 4.24292532 -3.5768162 8.27025107 -5.625 12.3125 C-5.94984375 12.95767578 -6.2746875 13.60285156 -6.609375 14.26757812 C-7.40441956 15.84597541 -8.20195634 17.42311694 -9 19 C-10.55847656 18.3503125 -10.55847656 18.3503125 -12.1484375 17.6875 C-24.79405229 12.48249864 -24.79405229 12.48249864 -38.0625 14.0625 C-40.27485002 15.98602458 -40.27485002 15.98602458 -41.125 19.375 C-41.34671838 23.01767972 -41.34671838 23.01767972 -39.19140625 25.3984375 C-35.12425613 29.18326607 -29.83094788 31.03737322 -24.8125 33.25 C-16.28892275 37.15843675 -9.17534252 40.77498557 -3 48 C-2.30261719 48.80695313 -1.60523438 49.61390625 -0.88671875 50.4453125 C3.652663 56.59180455 3.7239503 62.58855884 3 70 C1.38407516 77.00540143 -1.32922769 83.38873504 -7 88 C-20.29694044 96.00377635 -34.16415854 97.93790539 -49.4375 95 C-54.70789792 93.64345669 -59.38248792 91.56435455 -64.1875 89.0625 C-64.83581787 88.72669922 -65.48413574 88.39089844 -66.15209961 88.04492188 C-68.62635137 86.67845035 -70.73935869 85.27512139 -72.6875 83.21875 C-73.22903915 79.37382204 -70.82242026 76.5437404 -68.8125 73.4375 C-68.39935547 72.76525391 -67.98621094 72.09300781 -67.56054688 71.40039062 C-65.59672861 68.25640813 -63.69995685 65.56269566 -61 63 C-60.1646875 63.58007812 -60.1646875 63.58007812 -59.3125 64.171875 C-56.89830684 65.81939871 -54.4553933 67.41462795 -52 69 C-51.37738281 69.42539062 -50.75476563 69.85078125 -50.11328125 70.2890625 C-43.91954971 74.02411102 -37.03004461 73.72232239 -30 73 C-26.28358687 71.87304036 -26.28358687 71.87304036 -23.6875 69.1875 C-22.83654587 66.47991868 -22.51811661 64.82245987 -23 62 C-26.70218519 57.63494737 -30.54813723 55.46552183 -35.625 53.125 C-47.61653194 47.33754407 -58.56636245 41.79683389 -64 29 C-65.22021253 19.84840604 -64.68382219 11.49471438 -59 4 C-43.03827121 -13.4486579 -19.02945508 -12.52333704 0 0 Z " fill="#103047" transform="translate(390,190)"/>
<path d="M0 0 C6.2510889 6.42473026 9.51238252 14.98521253 9.6875 23.875 C9.55904536 32.54568789 7.10803011 40.77359228 2 47.875 C-5.14019286 54.20380731 -12.68431228 55.1885361 -21.99609375 54.7578125 C-27.07875469 54.15487457 -30.08539415 52.82552848 -33.75 49.3125 C-34.59111328 48.55066406 -34.59111328 48.55066406 -35.44921875 47.7734375 C-42.49338534 40.57576606 -43.32716531 31.35163022 -43.30810547 21.71582031 C-42.95452052 12.61151298 -39.39609447 5.42460404 -32.75 -0.8125 C-22.17993505 -8.99384971 -10.63531365 -6.52621519 0 0 Z " fill="#CFD0D0" transform="translate(288.75,208.6875)"/>
<path d="M0 0 C16.15625 0 16.15625 0 22.5625 5 C24.78374276 9.63563707 24.85677734 13.96274014 24 19 C22.3704585 22.37929508 20.14209078 24.4108581 16.78125 26.14453125 C13.31050727 27.21207712 10.31227806 27.19275286 6.6875 27.125 C3.3771875 27.063125 3.3771875 27.063125 0 27 C0 18.09 0 9.18 0 0 Z " fill="#CBCCCD" transform="translate(178,201)"/>
<path d="M0 0 C2.5625 0.1875 2.5625 0.1875 4.5625 2.1875 C4.8125 4.6875 4.8125 4.6875 4.5625 7.1875 C2.5625 9.1875 2.5625 9.1875 0.0625 9.5 C-1.175 9.3453125 -1.175 9.3453125 -2.4375 9.1875 C-4.4375 6.1875 -4.4375 6.1875 -4.125 3.5625 C-3.16420807 0.24340062 -3.16420807 0.24340062 0 0 Z " fill="#425A6A" transform="translate(343.4375,300.8125)"/>
<path d="M0 0 C4.55555556 0.55555556 4.55555556 0.55555556 6 2 C6.125 5 6.125 5 6 8 C5 9 5 9 2.5625 9.1875 C0 9 0 9 -2 7 C-2.25 4.5 -2.25 4.5 -2 2 C-1.34 1.34 -0.68 0.68 0 0 Z " fill="#7D8A94" transform="translate(172,301)"/>
<path d="M0 0 C0.66 0 1.32 0 2 0 C3.625 2 3.625 2 5 4 C5.33 2.68 5.66 1.36 6 0 C6.66 0 7.32 0 8 0 C8 2.97 8 5.94 8 9 C5 8 5 8 3 5 C2.67 6.32 2.34 7.64 2 9 C1.34 9 0.68 9 0 9 C0 6.03 0 3.06 0 0 Z " fill="#5B6E7C" transform="translate(256,301)"/>
<path d="M0 0 C1.66611905 -0.042721 3.33382885 -0.04063832 5 0 C7.04698414 2.04698414 6.70045693 6.30411241 7 9 C6.34 9 5.68 9 5 9 C5 8.01 5 7.02 5 6 C3.68 6 2.36 6 1 6 C0.67 6.99 0.34 7.98 0 9 C0 6.03 0 3.06 0 0 Z " fill="#5A6E7C" transform="translate(358,301)"/>
<path d="M0 0 C1.32 0 2.64 0 4 0 C3.67 0.66 3.34 1.32 3 2 C2.34 1.67 1.68 1.34 1 1 C1.66 2.32 2.32 3.64 3 5 C3.66 5 4.32 5 5 5 C5.33 6.32 5.66 7.64 6 9 C3.69 9 1.38 9 -1 9 C-2.0326802 6.21176345 -2.04509293 5.1322726 -1.0625 2.25 C-0.711875 1.5075 -0.36125 0.765 0 0 Z " fill="#536876" transform="translate(217,301)"/>
<path d="M0 0 C1.65 0 3.3 0 5 0 C5.33 1.65 5.66 3.3 6 5 C4.68 5.33 3.36 5.66 2 6 C2 6.99 2 7.98 2 9 C1.34 9 0.68 9 0 9 C0 6.03 0 3.06 0 0 Z " fill="#677885" transform="translate(154,301)"/>
<path d="M0 0 C2.0625 0.4375 2.0625 0.4375 4 1 C4 2.65 4 4.3 4 6 C2.0625 6.5625 2.0625 6.5625 0 7 C-1 6 -1 6 -1.125 3.5 C-1 1 -1 1 0 0 Z " fill="#C4C6C7" transform="translate(342,302)"/>
<path d="M0 0 C0.99 0.99 1.98 1.98 3 3 C3 3.66 3 4.32 3 5 C3.66 5 4.32 5 5 5 C5.66 3.35 6.32 1.7 7 0 C7.33 0.66 7.66 1.32 8 2 C7.06421005 4.35981813 6.06652192 6.69631264 5 9 C4.34 9 3.68 9 3 9 C2.01 6.03 1.02 3.06 0 0 Z " fill="#485E6E" transform="translate(273,301)"/>
<path d="M0 0 C2.97 1.98 2.97 1.98 6 4 C5.67 5.32 5.34 6.64 5 8 C3.35 8 1.7 8 0 8 C0.33 7.34 0.66 6.68 1 6 C1.99 6.33 2.98 6.66 4 7 C3.34 6.401875 2.68 5.80375 2 5.1875 C0 3 0 3 0 0 Z " fill="#3D5566" transform="translate(188,302)"/>
</svg>
